GIL11_xslow1_RRA_states
nRows=5
nColumns=47

# SIMM Motion File Header:
name GIL11_xslow1_RRA_states
datacolumns 47
datarows 5
otherdata 1
range 0.96233000000000057000 0.96433000000000058000
endheader
time	pelvis_tx	pelvis_ty	pelvis_tz	pelvis_tilt	pelvis_list	pelvis_rotation	hip_flexion_r	hip_adduction_r	hip_rotation_r	knee_angle_r	ankle_angle_r	subtalar_angle_r	mtp_angle_r	hip_flexion_l	hip_adduction_l	hip_rotation_l	knee_angle_l	ankle_angle_l	subtalar_angle_l	mtp_angle_l	lumbar_extension	lumbar_bending	lumbar_rotation	pelvis_tx_u	pelvis_ty_u	pelvis_tz_u	pelvis_tilt_u	pelvis_list_u	pelvis_rotation_u	hip_flexion_r_u	hip_adduction_r_u	hip_rotation_r_u	knee_angle_r_u	ankle_angle_r_u	subtalar_angle_r_u	mtp_angle_r_u	hip_flexion_l_u	hip_adduction_l_u	hip_rotation_l_u	knee_angle_l_u	ankle_angle_l_u	subtalar_angle_l_u	mtp_angle_l_u	lumbar_extension_u	lumbar_bending_u	lumbar_rotation_u
      0.96233000000000057000	      0.58033745995962083000	      0.86393527717677987000	     -0.30120915076525934000	     -5.97608635107995580000	     -2.97789919786590000000	      4.87894914455861880000	     19.93262403994225100000	      2.56066233061545700000	      9.62265972945915490000	     -1.51644752111922810000	     -9.10201602661179090000	      0.00000000000002032510	     -0.00000000000000392042	    -10.20161895331276900000	     -2.87432293879172060000	     10.78869901553747600000	    -12.09959453667713600000	      5.96028458808735360000	     -0.00000000000038055812	      0.00000000000011815290	      1.10815306673219150000	      3.59703464320219530000	     -1.80929512546436170000	      0.72321746965533262000	      0.13828454230168544000	      0.19262757701036543000	      7.54105833531293350000	    -10.98081323348487500000	     -9.67980174075579920000	    -58.15651299866050300000	     32.72013813183083600000	     -5.34861032213334560000	      2.28778004093247270000	     36.53934111089168400000	      0.00000000000004759988	      0.00000000000001915491	      2.57584126658456780000	    -37.61229218300500300000	     19.40327095702052100000	    -90.12680762512690100000	   -106.91428930998208000000	     -0.00000000000180814077	      0.00000000000112415735	     -3.67709901967363440000	      7.35924308263247080000	     23.08378277550986000000
      0.96283000000000052000	      0.58069896903220120000	      0.86400440380046095000	     -0.30111285383417885000	     -5.97232345835514700000	     -2.98334786107888130000	      4.87414994178630320000	     19.90352434104748300000	      2.57695959555793900000	      9.61988703689202400000	     -1.51524280925471210000	     -9.08375754689272870000	      0.00000000000002034959	     -0.00000000000000391190	    -10.20022673630706200000	     -2.89309327328627490000	     10.79845677856756800000	    -12.14479473816369600000	      5.90670830862372840000	     -0.00000000000038146527	      0.00000000000011870999	      1.10631023370906360000	      3.60065172048823760000	     -1.79778823428119880000	      0.72281865637565035000	      0.13822122764621064000	      0.19256010777080834000	      7.51034179911895540000	    -10.81389663483736600000	     -9.51706146035149560000	    -58.24198385404622500000	     32.46896325581946700000	     -5.74264526422870690000	      2.53105374695770460000	     36.49379797161027000000	      0.00000000000004953051	      0.00000000000002719507	      2.99342475414120070000	    -37.46904689272672300000	     19.62715671383741200000	    -90.67430412736412400000	   -107.39062327123166000000	     -0.00000000000182261466	      0.00000000000108421770	     -3.69394233286732470000	      7.10907847902361030000	     22.94351639858684100000
      0.96333000000000057000	      0.58106027845307351000	      0.86407349768400277000	     -0.30101659069409020000	     -5.96857617885226690000	     -2.98871315328119320000	      4.86943202872316850000	     19.87438235125223300000	      2.59313133757146200000	      9.61691660490949300000	     -1.51391646943491280000	     -9.06552305282463240000	      0.00000000000002037521	     -0.00000000000000389978	    -10.19862513522294700000	     -2.91179198830768730000	     10.80832555329782900000	    -12.19026913359364700000	      5.85289416292759150000	     -0.00000000000038236888	      0.00000000000011924936	      1.10445941370319440000	      3.60414373640628540000	     -1.78635187229034930000	      0.72241886606379746000	      0.13815359046446821000	      0.19249241897278324000	      7.47860787013130770000	    -10.64733287440102500000	     -9.35464761611892470000	    -58.32568359773580400000	     32.21805081489098700000	     -6.13955550173858370000	      2.77431458261341520000	     36.44331018396808700000	      0.00000000000005367312	      0.00000000000002889525	      3.41336772810083610000	    -37.32581747263238700000	     19.84732843299865100000	    -91.22355664891125600000	   -107.86576813641170000000	     -0.00000000000178634336	      0.00000000000106029927	     -3.70904980199992270000	      6.85900247458359050000	     22.80167083292082700000
      0.96383000000000052000	      0.58142138773764185000	      0.86414255667751994000	     -0.30092036144385692000	     -5.96484501634248240000	     -2.99399525335374280000	      4.86479523208139940000	     19.84519895407480300000	      2.60917769408056400000	      9.61374701631380190000	     -1.51246850995308830000	     -9.04731504103939700000	      0.00000000000002040164	     -0.00000000000000388864	    -10.19681298003382300000	     -2.93041909243643110000	     10.81830347410749100000	    -12.23601858700290500000	      5.79884274441196100000	     -0.00000000000038325650	      0.00000000000011978131	      1.10260146904037940000	      3.60751074022204010000	     -1.77498682128742070000	      0.72201811251434600000	      0.13808167285145337000	      0.19242455834856631000	      7.44587882517932260000	    -10.48112567942991900000	     -9.19260650730590360000	    -58.40760345188186900000	     31.96742486337016900000	     -6.53925576887145340000	      3.01748323222381210000	     36.38799684841314500000	      0.00000000000005155735	      0.00000000000002397785	      3.83564144322591490000	    -37.18259826390473700000	     20.06370246684263100000	    -91.77456158087200300000	   -108.33968905023553000000	     -0.00000000000176539448	      0.00000000000108250109	     -3.72244644394102360000	      6.60903028232974950000	     22.65827841034017400000
      0.96433000000000058000	      0.58178229640730728000	      0.86421157865006082000	     -0.30082416615651936000	     -5.96113046222072460000	     -2.99919433875176590000	      4.86023935242944470000	     19.81597504606153500000	      2.62509881379439850000	      9.61037689795579200000	     -1.51089901569161800000	     -9.02913583861914580000	      0.00000000000002042810	     -0.00000000000000387530	    -10.19478911008536100000	     -2.94897458711598090000	     10.82838860869886100000	    -12.28204398647327800000	      5.74455468303470250000	     -0.00000000000038413646	      0.00000000000012031012	      1.10073724826507010000	      3.61075278620771510000	     -1.76369384634840750000	      0.72161640978940056000	      0.13800551450161275000	      0.19235657311094104000	      7.41217665661335090000	    -10.31527738544831200000	     -9.03098430259610650000	    -58.48773361528931500000	     31.71710730211548700000	     -6.94166272133520760000	      3.26047445394965730000	     36.32798812583597900000	      0.00000000000005274530	      0.00000000000002843627	      4.26021679088026330000	    -37.03938245194798600000	     20.27619379837780800000	    -92.32731358411201900000	   -108.81235459727658000000	     -0.00000000000175505716	      0.00000000000103859561	     -3.73415703429796690000	      6.35917545277293870000	     22.51337134074576000000
